<?xml version="1.0" encoding="utf-8"?>
<svg viewBox="0 0 402 270" xmlns="http://www.w3.org/2000/svg">
  <g fill="none" stroke="#000000" stroke-width="0.5" transform="matrix(1, 0, 0, 1, 2.842170943040401e-14, 2.842170943040401e-14)">
    <g>
      <path d="M 289.2 6.05 C 291.35 5.75 293.7 6.05 295.9 6.05 C 301.25 6.05 306.55 6.25 311.9 7.05 C 318.85 8.05 325.75 9.5 332.5 11.55 C 344 15.1 355 20.75 365 27.4 C 370.25 30.9 375.05 35.05 379.7 39.25 C 380.9 40.4 382.2 41.55 383.25 42.85 C 383.7 43.35 384.25 43.9 384.4 44.55 C 384.55 45.25 383.4 46.2 383 46.7 C 381.35 48.55 379.7 50.4 377.9 52.2 C 372.85 57.25 367.85 62.4 362.75 67.5 C 361.05 69.2 359.35 70.85 357.55 72.4 C 356.85 73.05 356.05 74.05 355.1 74.5 C 354.5 74.75 353.5 73.75 353 73.4 C 351.1 72 349.4 70.35 347.6 68.85 C 340.55 63 332.9 58.25 324.35 55.05 C 319.75 53.35 315 51.9 310.1 51.05 C 303.75 50 297.35 49.85 291 50.1 C 285.4 50.35 279.75 51.05 274.35 52.5 C 267.9 54.25 261.7 57.05 255.85 60.2 C 249.55 63.6 244 68.25 239 73.25 C 230.25 82 222.9 92.4 218.5 104 C 216.35 109.6 214.9 115.75 214.1 121.75 C 214 123.2 213.622 123.863 213.222 125.263 C 213.022 125.763 213.05 127.4 212.5 127.5 C 211.9 127.55 211.25 127.1 210.85 126.85 C 209.75 126.1 208.85 125.25 207.85 124.4 C 204.2 121.4 200.4 118.6 196.4 116.1 C 191.6 113.1 186.6 110.4 181.35 108.4 C 179.7 107.85 178 107.35 176.35 106.7 C 175.6 106.4 174.75 106.1 174.35 105.5 C 173.75 104.6 174.2 103.35 174.4 102.4 C 174.9 99.75 175.85 97.2 176.6 94.7 C 180.2 84.05 184.7 73.75 190.6 64.25 C 207.05 37.9 233.55 18.35 263.5 10 C 266.75 9.1 270.2 8.5 273.55 7.9 C 276.6 7.35 279.75 6.75 282.9 6.4 C 285 6.2 287.1 6.35 289.2 6.05 M 97.4 12.25 C 98.25 12.2 99.25 12.25 100.1 12.25 L 105.25 12.25 L 121.35 12.25 C 138.1 12.25 154.85 12.35 171.6 12.35 C 177.4 12.35 183.2 12.2 188.9 12.5 C 190.25 12.55 191.6 12.55 193 12.7 C 193.4 12.7 194.2 12.75 194.35 13.25 C 194.5 13.85 193.85 14.7 193.55 15.1 C 192.6 16.7 191.55 18.2 190.5 19.7 C 186.1 25.55 181.85 31.35 177.6 37.25 C 174.5 41.6 171.4 45.9 168.2 50.2 C 167.4 51.35 166.55 52.5 165.6 53.55 C 165.35 53.9 165 54.6 164.5 54.75 C 164 55 163.25 54.85 162.75 54.85 L 159 54.85 C 156.519 54.85 152.556 54.905 149.812 54.948 C 148.021 54.977 146.75 55 146.75 55 C 137 55 127.25 55.1 117.5 55.35 C 113.75 55.4 110 55.35 106.25 55.6 C 104.6 55.75 102.85 55.6 101.2 56.05 C 98.7 56.7 96.25 57.75 94 59 C 85.6 63.4 78.9 70.7 76.75 80 C 75.7 84.75 75.7 90 76.55 94.75 C 77 96.85 77.85 98.75 78.7 100.6 C 80.1 103.85 82 106.9 84.4 109.5 C 86.6 111.85 89.4 113.85 92.1 115.5 C 93.9 116.6 95.75 117.55 97.75 118.35 C 98.55 118.6 99.35 119.05 100.1 119.2 C 100.9 119.4 101.9 119.25 102.75 119.25 C 104.35 119.25 105.85 119.35 107.4 119.35 C 111.75 119.35 116.1 119.5 120.5 119.5 C 128.5 119.5 136.5 119.6 144.5 119.85 C 150.35 120 156.25 119.9 162.1 120.55 C 167.75 121.2 173.35 122.6 178.6 124.6 C 186.6 127.7 194.05 132.55 200.35 138.4 C 205.25 143 209.55 148 213 153.75 C 215.6 158.4 217.4 163.4 219.6 168.25 C 221.7 172.7 224 177.05 226.6 181.1 C 229.4 185.4 232.7 189.25 236.2 193 C 245.25 202.75 256.35 210.35 269 214.85 C 283.9 220.2 301.05 220.55 316.25 216.5 C 321.35 215.1 326.2 213.05 331 210.9 C 337.55 207.9 343.7 203.4 349.2 198.85 C 350.55 197.7 351.75 196.35 353.2 195.25 C 353.75 194.85 354.55 194.4 355.2 194.85 C 356.6 195.75 357.9 197.1 359.2 198.35 C 360.9 200 362.7 201.6 364.4 203.35 C 368.75 207.6 373.2 211.85 377.35 216.35 C 379.05 218.1 380.75 219.9 382.4 221.75 C 382.85 222.25 384 223.2 383.9 223.9 C 383.9 224.6 383.1 225.5 382.6 226 C 381.2 227.7 379.55 229.2 377.9 230.6 C 371.35 236.4 364.1 241.6 356.55 246.05 C 343.2 253.75 328.35 258.9 313.05 261.2 C 308 261.9 302.85 262.05 297.7 262.25 C 294.05 262.4 290.25 262.6 286.6 262.4 C 283.4 262.2 280.1 261.4 276.9 260.9 C 249.1 256.6 222.9 242.35 204.05 221.5 C 196.05 212.6 189.55 202.7 184.2 192 C 183.05 189.7 182.1 187.35 181.05 185.05 C 177.5 177.7 172.6 169.85 165.1 166.05 C 163.55 165.25 162.05 164.6 160.35 164.2 C 156.7 163.25 152.9 163.35 149.2 163.2 C 141.4 162.85 133.6 163.05 125.85 163.05 C 120.2 163.05 114.55 163 108.9 162.85 C 104.35 162.7 99.75 162.7 95.2 162.05 C 78.55 159.5 62.9 150.5 51.85 137.85 C 44.6 129.55 39.05 120.25 35.75 109.75 C 33.55 102.6 32.75 95.25 32.75 87.75 C 32.75 83.9 32.9 80.05 33.35 76.25 C 34.35 68.35 36.9 60.35 40.55 53.25 C 44.25 46.05 49.35 39.7 55.1 34 C 60.6 28.55 66.75 23.6 73.7 20.05 C 79.2 17.25 85 15.25 91 13.85 C 93.1 13.25 95.25 12.6 97.4 12.25 M 175.05 208.7 C 175.9 208.5 176.6 209.55 177.05 210.2 C 178.35 212.2 179.2 214.35 180.4 216.4 C 184.35 223.4 188.85 230.05 194.25 235.9 C 196 237.75 197.75 239.55 199.35 241.4 C 199.75 241.9 200.9 242.85 200.9 243.5 C 200.9 244 200.2 244.6 199.85 245 C 198.6 246.1 197.35 247.2 196 248.2 C 190.5 252.35 184.75 255.75 178.35 258.25 C 172.2 260.55 165.75 262 159.25 262.6 C 156.7 262.85 154.05 262.75 151.5 262.75 C 146.55 262.85 141.6 262.75 136.7 262.9 C 131.7 263.05 126.75 262.9 121.75 263 C 104.4 263.2 87.05 263 69.7 263 C 62.75 263 55.85 263.1 48.9 262.85 C 46.85 262.75 44.85 262.9 42.75 262.75 C 40.5 262.6 38.1 262.85 35.85 262.6 C 35.1 262.55 34.25 262.75 33.6 262.35 C 32.7 261.7 33.2 260.35 33.55 259.5 C 34.6 257 36.05 254.6 37.25 252.2 C 41.1 244.5 44.9 236.7 48.75 229 C 49.85 226.75 51 224.55 52.2 222.4 C 52.6 221.6 53.05 220.4 53.75 219.9 C 54.5 219.4 55.6 219.5 56.4 219.4 C 58.7 219.2 61.05 219.25 63.35 219.2 C 66.5 219.05 69.7 219.2 72.85 219.1 C 78.75 219.05 84.7 219.05 90.6 219.05 C 105.25 219.05 119.85 219 134.5 219 C 139.2 219 144 218.85 148.7 218.85 C 151 218.85 153.2 218.75 155.5 218.7 C 156.4 218.6 157.35 218.75 158.25 218.55 C 162.5 217.85 166.6 215.1 169.9 212.55 C 171 211.7 172 210.75 173.05 209.9 C 173.6 209.4 174.25 208.85 175.05 208.7" style="opacity: 0.9; fill: rgb(255, 255, 255);"/>
    </g>
  </g>
</svg>